<svg version="1.1" xmlns="http://www.w3.org/2000/svg" viewBox="0 0 10407.698320529173 3934.4547527834666" width="10407.698320529173" height="3934.4547527834666">
  <!-- svg-source:excalidraw -->
  
  <defs>
    <style class="style-fonts">
      @font-face {
        font-family: "Virgil";
        src: url("https://excalidraw.com/Virgil.woff2");
      }
      @font-face {
        font-family: "Cascadia";
        src: url("https://excalidraw.com/Cascadia.woff2");
      }
    </style>
    
  </defs>
  <rect x="0" y="0" width="10407.698320529173" height="3934.4547527834666" fill="#ffffff"></rect><g stroke-linecap="round" transform="translate(2893.316163898464 10) rotate(0 1364.3568538137688 405.5278283612922)"><path d="M32 0 M32 0 C1055 4.24, 2077.74 5.06, 2696.71 0 M32 0 C704.24 -10.24, 1376.39 -10.08, 2696.71 0 M2696.71 0 C2717.51 -0.67, 2727.97 9.41, 2728.71 32 M2696.71 0 C2717.06 1.51, 2728.7 11.31, 2728.71 32 M2728.71 32 C2728.88 250.56, 2729.95 470.4, 2728.71 779.06 M2728.71 32 C2731.56 260.6, 2731.66 488.37, 2728.71 779.06 M2728.71 779.06 C2726.87 800.76, 2716.53 809.24, 2696.71 811.06 M2728.71 779.06 C2728.08 799.03, 2715.92 811.93, 2696.71 811.06 M2696.71 811.06 C1694.59 811.33, 691.45 811.81, 32 811.06 M2696.71 811.06 C1821.49 819.36, 947.19 819.07, 32 811.06 M32 811.06 C11.76 812.15, -0.22 801.53, 0 779.06 M32 811.06 C11.3 813.16, -0.42 802.37, 0 779.06 M0 779.06 C-1.1 567.4, -0.86 355.21, 0 32 M0 779.06 C-1.8 625.91, -1.29 472.68, 0 32 M0 32 C0.76 12.32, 10.42 -0.68, 32 0 M0 32 C-1.34 10.64, 10.9 1.58, 32 0" stroke="#1e1e1e" stroke-width="1" fill="none"></path></g><g transform="translate(3747.9322526301257 57.49177130547423) rotate(0 497.2463775468368 59.90365442557061)"><text x="0" y="0" font-family="Cascadia, Segoe UI Emoji" font-size="99.83942404261757px" fill="#1e1e1e" text-anchor="start" style="white-space: pre;" direction="ltr" dominant-baseline="text-before-edge">CheckoutContainer</text></g><g transform="translate(3254.255089968876 344.32989070509166) rotate(0 1127.7685546875 125.98219824099829)"><text x="0" y="0" font-family="Cascadia, Segoe UI Emoji" font-size="69.99011013388794px" fill="#1e1e1e" text-anchor="start" style="white-space: pre;" direction="ltr" dominant-baseline="text-before-edge">States: basketList, basketProducts, purchaseButton,    </text><text x="0" y="83.98813216066553" font-family="Cascadia, Segoe UI Emoji" font-size="69.99011013388794px" fill="#1e1e1e" text-anchor="start" style="white-space: pre;" direction="ltr" dominant-baseline="text-before-edge"></text><text x="0" y="167.97626432133106" font-family="Cascadia, Segoe UI Emoji" font-size="69.99011013388794px" fill="#1e1e1e" text-anchor="start" style="white-space: pre;" direction="ltr" dominant-baseline="text-before-edge">Properties: N/A </text></g><g stroke-linecap="round"><g transform="translate(4072.5085503341397 2272.14422342605) rotate(0 4.286887088664116 434.6161518859331)"><path d="M-1.14 0.51 C0.09 145.24, 5.78 723.7, 7.38 868.49 M0.47 -0.26 C2.08 144.57, 8.48 724.38, 9.71 869.49" stroke="#1e1e1e" stroke-width="1" fill="none"></path></g><g transform="translate(4072.5085503341397 2272.14422342605) rotate(0 4.286887088664116 434.6161518859331)"><path d="M0.03 840.18 C0.7 850.58, 5.13 857.45, 7.92 869.66 M-0.06 841.84 C2.1 847.07, 3.17 854.91, 10.54 869.82" stroke="#1e1e1e" stroke-width="1" fill="none"></path></g><g transform="translate(4072.5085503341397 2272.14422342605) rotate(0 4.286887088664116 434.6161518859331)"><path d="M20.55 839.98 C15.01 850.24, 13.23 857.17, 7.92 869.66 M20.46 841.64 C17.84 846.92, 14.12 854.81, 10.54 869.82" stroke="#1e1e1e" stroke-width="1" fill="none"></path></g></g><mask></mask><g stroke-linecap="round" transform="translate(2587.5260373384626 3171.154288221689) rotate(0 1796.3210363979106 376.6502322808889)"><path d="M32 0 M32 0 C778.04 -7.92, 1524.38 -8.4, 3560.64 0 M32 0 C1392.16 -2.6, 2751.28 -3.06, 3560.64 0 M3560.64 0 C3582.06 -0.88, 3591.48 8.9, 3592.64 32 M3560.64 0 C3580.09 -0.6, 3594.55 12.85, 3592.64 32 M3592.64 32 C3593.81 258.24, 3593.98 484.94, 3592.64 721.3 M3592.64 32 C3590.62 287.03, 3590.41 542.94, 3592.64 721.3 M3592.64 721.3 C3593.97 741.97, 3581.67 751.88, 3560.64 753.3 M3592.64 721.3 C3590.63 741.82, 3582.11 752.86, 3560.64 753.3 M3560.64 753.3 C2175.76 749.19, 792.25 748.89, 32 753.3 M3560.64 753.3 C2357.71 767.52, 1154.06 767.44, 32 753.3 M32 753.3 C9.02 752.7, -1.06 742.63, 0 721.3 M32 753.3 C9.14 752.07, -0.39 743.28, 0 721.3 M0 721.3 C-1.45 581.53, -1.68 441.39, 0 32 M0 721.3 C1.67 579.79, 2.14 438.44, 0 32 M0 32 C0.73 11.08, 9.83 0.26, 32 0 M0 32 C-1.29 9.77, 10.45 -1.15, 32 0" stroke="#1e1e1e" stroke-width="1" fill="none"></path></g><g transform="translate(3995.3561928939016 3290.255068398508) rotate(0 308.9296875 45.1965511494717)"><text x="0" y="0" font-family="Cascadia, Segoe UI Emoji" font-size="75.32758524911954px" fill="#1e1e1e" text-anchor="start" style="white-space: pre;" direction="ltr" dominant-baseline="text-before-edge">basketProducts</text></g><g transform="translate(2869.1688813965193 3533.071928810978) rotate(0 1476.3515625 125.98219824099829)"><text x="0" y="0" font-family="Cascadia, Segoe UI Emoji" font-size="69.99011013388794px" fill="#1e1e1e" text-anchor="start" style="white-space: pre;" direction="ltr" dominant-baseline="text-before-edge">States: changeQuantity, removeProduct    </text><text x="0" y="83.98813216066553" font-family="Cascadia, Segoe UI Emoji" font-size="69.99011013388794px" fill="#1e1e1e" text-anchor="start" style="white-space: pre;" direction="ltr" dominant-baseline="text-before-edge"></text><text x="0" y="167.97626432133106" font-family="Cascadia, Segoe UI Emoji" font-size="69.99011013388794px" fill="#1e1e1e" text-anchor="start" style="white-space: pre;" direction="ltr" dominant-baseline="text-before-edge">Properties: name, img, price, changeQuantityButton, removeProductButton </text></g><g stroke-linecap="round" transform="translate(3293.591427658401 1523.2054697441451) rotate(0 848.1156098841757 376.6502322808889)"><path d="M32 0 M32 0 C671.2 0.59, 1309.94 0.6, 1664.23 0 M32 0 C478.7 2.55, 924.9 3.01, 1664.23 0 M1664.23 0 C1686.25 -1.41, 1696.01 10.35, 1696.23 32 M1664.23 0 C1687.3 0.66, 1696.66 11.4, 1696.23 32 M1696.23 32 C1696.69 294.27, 1696 557.53, 1696.23 721.3 M1696.23 32 C1694.02 245.26, 1693.88 458.2, 1696.23 721.3 M1696.23 721.3 C1696.49 743.95, 1685.79 752.84, 1664.23 753.3 M1696.23 721.3 C1698.53 740.64, 1686.88 752.87, 1664.23 753.3 M1664.23 753.3 C1061.39 749.42, 459.09 748.13, 32 753.3 M1664.23 753.3 C1231.56 757.8, 798.56 757.41, 32 753.3 M32 753.3 C10.33 754.02, 1.68 743.9, 0 721.3 M32 753.3 C10.87 752.68, -1.2 741.5, 0 721.3 M0 721.3 C-1.93 537.86, -2.4 355.83, 0 32 M0 721.3 C-1.5 485.78, -2.25 250.67, 0 32 M0 32 C1.34 9.74, 11.9 1.8, 32 0 M0 32 C-2.06 9.91, 9.96 -0.12, 32 0" stroke="#1e1e1e" stroke-width="1" fill="none"></path></g><g transform="translate(3885.863217022772 1606.7724090286365) rotate(0 220.6640625 45.19655114947173)"><text x="0" y="0" font-family="Cascadia, Segoe UI Emoji" font-size="75.32758524911954px" fill="#1e1e1e" text-anchor="start" style="white-space: pre;" direction="ltr" dominant-baseline="text-before-edge">basketList</text></g><g stroke-linecap="round"><g transform="translate(3954.617778337375 842.9779327352558) rotate(0 -2.4074540409119436 332.29542575045053)"><path d="M1.13 -1.13 C0.12 109.71, -4.28 554.73, -5.21 665.72 M0.26 0.89 C-0.95 111.37, -5.14 553.33, -5.94 664.23" stroke="#1e1e1e" stroke-width="1" fill="none"></path></g><g transform="translate(3954.617778337375 842.9779327352558) rotate(0 -2.4074540409119436 332.29542575045053)"><path d="M-17.84 636.63 C-10.08 648.37, -7.92 656.74, -5.27 662.46 M-16.2 636.72 C-12.58 642.76, -11.31 651.4, -6.57 664.01" stroke="#1e1e1e" stroke-width="1" fill="none"></path></g><g transform="translate(3954.617778337375 842.9779327352558) rotate(0 -2.4074540409119436 332.29542575045053)"><path d="M2.68 636.8 C2.8 648.67, -2.67 656.97, -5.27 662.46 M4.32 636.9 C2.4 642.95, -1.88 651.55, -6.57 664.01" stroke="#1e1e1e" stroke-width="1" fill="none"></path></g></g><mask></mask><g transform="translate(3424.096078069517 1897.3173114334497) rotate(0 533.126953125 125.98219824099829)"><text x="0" y="0" font-family="Cascadia, Segoe UI Emoji" font-size="69.99011013388794px" fill="#1e1e1e" text-anchor="start" style="white-space: pre;" direction="ltr" dominant-baseline="text-before-edge">States: N/a     </text><text x="0" y="83.98813216066553" font-family="Cascadia, Segoe UI Emoji" font-size="69.99011013388794px" fill="#1e1e1e" text-anchor="start" style="white-space: pre;" direction="ltr" dominant-baseline="text-before-edge"></text><text x="0" y="167.97626432133106" font-family="Cascadia, Segoe UI Emoji" font-size="69.99011013388794px" fill="#1e1e1e" text-anchor="start" style="white-space: pre;" direction="ltr" dominant-baseline="text-before-edge">Properties: basketProducts</text></g><g stroke-linecap="round" transform="translate(6637.829882693291 1733.732955131822) rotate(0 1879.9342189179406 450.30349259737494)"><path d="M32 0 M32 0 C1246.01 -8.35, 2459.36 -8.3, 3727.87 0 M32 0 C1294.22 13.43, 2556.09 12.88, 3727.87 0 M3727.87 0 C3750.5 -0.04, 3760.79 11.04, 3759.87 32 M3727.87 0 C3750.78 0.95, 3761.93 10.75, 3759.87 32 M3759.87 32 C3760.41 247.22, 3759.95 461.89, 3759.87 868.61 M3759.87 32 C3760.6 306.28, 3761.08 581.17, 3759.87 868.61 M3759.87 868.61 C3761.23 889.82, 3748.99 902.27, 3727.87 900.61 M3759.87 868.61 C3759.7 892.15, 3750.03 901.83, 3727.87 900.61 M3727.87 900.61 C2884.05 886.42, 2038.27 887, 32 900.61 M3727.87 900.61 C2266.06 908.79, 803.54 908.73, 32 900.61 M32 900.61 C11.78 901.13, -1.36 891.27, 0 868.61 M32 900.61 C10.91 901.39, -2.2 890.58, 0 868.61 M0 868.61 C0.94 671.56, 0.97 474.77, 0 32 M0 868.61 C2.59 552.7, 2.77 237.12, 0 32 M0 32 C-1.23 9.93, 12.32 1.21, 32 0 M0 32 C-1.99 11.48, 11.85 -0.87, 32 0" stroke="#1e1e1e" stroke-width="1" fill="none"></path></g><g transform="translate(8299.140104855782 1822.1576395880152) rotate(0 233.466796875 47.814072494669524)"><text x="0" y="0" font-family="Cascadia, Segoe UI Emoji" font-size="79.69012082444921px" fill="#1e1e1e" text-anchor="start" style="white-space: pre;" direction="ltr" dominant-baseline="text-before-edge">ShopFooter</text></g><g transform="translate(6735.522687665874 2107.9478531794307) rotate(0 1784.296875 137.0490405117271)"><text x="0" y="0" font-family="Cascadia, Segoe UI Emoji" font-size="76.13835583984839px" fill="#1e1e1e" text-anchor="start" style="white-space: pre;" direction="ltr" dominant-baseline="text-before-edge">States: N/A</text><text x="0" y="91.36602700781806" font-family="Cascadia, Segoe UI Emoji" font-size="76.13835583984839px" fill="#1e1e1e" text-anchor="start" style="white-space: pre;" direction="ltr" dominant-baseline="text-before-edge"></text><text x="0" y="182.73205401563612" font-family="Cascadia, Segoe UI Emoji" font-size="76.13835583984839px" fill="#1e1e1e" text-anchor="start" style="white-space: pre;" direction="ltr" dominant-baseline="text-before-edge">Properties: socialMediaIcons, logo, companyName, contact, privacyPolicy, aboutUs</text></g><g stroke-linecap="round"><g transform="translate(5357.881289111232 835.2864477291973) rotate(0 1065.012032692507 442.6640856471658)"><path d="M1.01 1.02 C355.56 148.58, 1773.17 737.69, 2127.87 884.82 M0.07 0.5 C354.94 147.78, 1775.21 735.7, 2129.95 883.12" stroke="#1e1e1e" stroke-width="1" fill="none"></path></g><g transform="translate(5357.881289111232 835.2864477291973) rotate(0 1065.012032692507 442.6640856471658)"><path d="M2101.67 879.81 C2111.57 882.23, 2120.15 884.28, 2130.66 883.9 M2099.94 882.14 C2109.67 881.97, 2120.02 881.93, 2129.39 882.84" stroke="#1e1e1e" stroke-width="1" fill="none"></path></g><g transform="translate(5357.881289111232 835.2864477291973) rotate(0 1065.012032692507 442.6640856471658)"><path d="M2109.53 860.85 C2116.66 869.84, 2122.54 878.38, 2130.66 883.9 M2107.8 863.18 C2114.84 869.22, 2122.6 875.44, 2129.39 882.84" stroke="#1e1e1e" stroke-width="1" fill="none"></path></g></g><mask></mask><g stroke-linecap="round" transform="translate(10 1604.3188926318223) rotate(0 1065.8500391112311 450.30349259737494)"><path d="M32 0 M32 0 C771.46 6.35, 1510.13 5.99, 2099.7 0 M32 0 C797.79 2.6, 1563.16 3.22, 2099.7 0 M2099.7 0 C2121.38 0.58, 2133.22 9.42, 2131.7 32 M2099.7 0 C2121.87 -1.9, 2129.59 12.91, 2131.7 32 M2131.7 32 C2132.14 266.61, 2132.29 501.75, 2131.7 868.61 M2131.7 32 C2132.69 323.54, 2132.73 615.47, 2131.7 868.61 M2131.7 868.61 C2129.9 891.57, 2120.33 901.32, 2099.7 900.61 M2131.7 868.61 C2132.4 890.72, 2121.92 900.04, 2099.7 900.61 M2099.7 900.61 C1294.45 902.09, 488.23 902.6, 32 900.61 M2099.7 900.61 C1310.85 904.46, 521.7 904.21, 32 900.61 M32 900.61 C10.59 900.54, -1.73 888.88, 0 868.61 M32 900.61 C10.16 901.78, -1.36 890.63, 0 868.61 M0 868.61 C-0.25 691.64, -0.34 513.76, 0 32 M0 868.61 C2.3 579.03, 2.24 289.15, 0 32 M0 32 C-1.3 12.11, 9.05 1.73, 32 0 M0 32 C-0.44 10.28, 12.67 1.38, 32 0" stroke="#1e1e1e" stroke-width="1" fill="none"></path></g><g transform="translate(745.1799859671082 1736.401508908645) rotate(0 233.466796875 47.814072494669524)"><text x="0" y="0" font-family="Cascadia, Segoe UI Emoji" font-size="79.69012082444921px" fill="#1e1e1e" text-anchor="start" style="white-space: pre;" direction="ltr" dominant-baseline="text-before-edge">ShopHeader</text></g><g transform="translate(76.31411876732818 1979.0159271717464) rotate(0 981.36328125 137.0490405117271)"><text x="0" y="0" font-family="Cascadia, Segoe UI Emoji" font-size="76.13835583984839px" fill="#1e1e1e" text-anchor="start" style="white-space: pre;" direction="ltr" dominant-baseline="text-before-edge">States: N/A</text><text x="0" y="91.36602700781806" font-family="Cascadia, Segoe UI Emoji" font-size="76.13835583984839px" fill="#1e1e1e" text-anchor="start" style="white-space: pre;" direction="ltr" dominant-baseline="text-before-edge"></text><text x="0" y="182.73205401563612" font-family="Cascadia, Segoe UI Emoji" font-size="76.13835583984839px" fill="#1e1e1e" text-anchor="start" style="white-space: pre;" direction="ltr" dominant-baseline="text-before-edge">Properties: logo, companyName, onButtonClick</text></g><g stroke-linecap="round"><g transform="translate(3047.178164111232 842.7864477291973) rotate(0 -631.1719760979622 379.6328215026763)"><path d="M0.63 0.68 C-209.7 127.27, -1051.85 632.76, -1262.54 759.27 M-0.49 -0.01 C-210.86 126.21, -1052.34 630.97, -1262.98 757.26" stroke="#1e1e1e" stroke-width="1" fill="none"></path></g><g transform="translate(3047.178164111232 842.7864477291973) rotate(0 -631.1719760979622 379.6328215026763)"><path d="M-1242.94 735.59 C-1248.63 740.03, -1252.71 746.91, -1264.27 757.43 M-1243.86 733.11 C-1249.52 739.22, -1254 746.44, -1262.82 756.66" stroke="#1e1e1e" stroke-width="1" fill="none"></path></g><g transform="translate(3047.178164111232 842.7864477291973) rotate(0 -631.1719760979622 379.6328215026763)"><path d="M-1232.39 753.18 C-1240.75 753.17, -1247.54 755.53, -1264.27 757.43 M-1233.3 750.71 C-1241.77 752.27, -1249.01 754.88, -1262.82 756.66" stroke="#1e1e1e" stroke-width="1" fill="none"></path></g></g><mask></mask></svg>