<svg version="1.1" xmlns="http://www.w3.org/2000/svg" viewBox="0 0 12628.71394552917 2768.2314793342225" width="12628.71394552917" height="2768.2314793342225">
  <!-- svg-source:excalidraw -->
  
  <defs>
    <style class="style-fonts">
      @font-face {
        font-family: "Virgil";
        src: url("https://excalidraw.com/Virgil.woff2");
      }
      @font-face {
        font-family: "Cascadia";
        src: url("https://excalidraw.com/Cascadia.woff2");
      }
    </style>
    
  </defs>
  <rect x="0" y="0" width="12628.71394552917" height="2768.2314793342225" fill="#ffffff"></rect><g stroke-linecap="round" transform="translate(3736.2963511382018 10) rotate(0 1364.3568538137688 405.52782836129217)"><path d="M32 0 M32 0 C846.24 -10.1, 1660.8 -9.11, 2696.71 0 M32 0 C717.18 -1.19, 1402.55 -1.28, 2696.71 0 M2696.71 0 C2717.52 1.31, 2726.99 11.48, 2728.71 32 M2696.71 0 C2719.68 1.49, 2727.8 11.48, 2728.71 32 M2728.71 32 C2730.76 307.37, 2729.87 583.55, 2728.71 779.06 M2728.71 32 C2726.56 318.87, 2726.21 605.99, 2728.71 779.06 M2728.71 779.06 C2728.22 798.52, 2717.55 812.3, 2696.71 811.06 M2728.71 779.06 C2728.54 798.24, 2717.88 809.88, 2696.71 811.06 M2696.71 811.06 C2048.18 800.92, 1398.24 801.3, 32 811.06 M2696.71 811.06 C1874.04 821.78, 1051 821.48, 32 811.06 M32 811.06 C12.64 810.3, 0.47 801.55, 0 779.06 M32 811.06 C11.25 810.58, 1.43 800.41, 0 779.06 M0 779.06 C1.51 611.19, 1.81 443.41, 0 32 M0 779.06 C1.89 600.99, 1.87 421.99, 0 32 M0 32 C-0.49 10.91, 11.38 0.99, 32 0 M0 32 C1.65 12.1, 10.14 1.09, 32 0" stroke="#1e1e1e" stroke-width="1" fill="none"></path></g><g transform="translate(4642.579421999975 71.805930103209) rotate(0 376.27734375 55.04673265073359)"><text x="0" y="0" font-family="Cascadia, Segoe UI Emoji" font-size="91.74455441788939px" fill="#1e1e1e" text-anchor="start" style="white-space: pre;" direction="ltr" dominant-baseline="text-before-edge">LoginContainer</text></g><g transform="translate(3808.1013016249117 352.1489844127377) rotate(0 965.26171875 121.0469990418087)"><text x="0" y="0" font-family="Cascadia, Segoe UI Emoji" font-size="67.24833280100485px" fill="#1e1e1e" text-anchor="start" style="white-space: pre;" direction="ltr" dominant-baseline="text-before-edge">States: homeButton, existingCustomer, newCustomer</text><text x="0" y="80.69799936120582" font-family="Cascadia, Segoe UI Emoji" font-size="67.24833280100485px" fill="#1e1e1e" text-anchor="start" style="white-space: pre;" direction="ltr" dominant-baseline="text-before-edge"></text><text x="0" y="161.39599872241163" font-family="Cascadia, Segoe UI Emoji" font-size="67.24833280100485px" fill="#1e1e1e" text-anchor="start" style="white-space: pre;" direction="ltr" dominant-baseline="text-before-edge">Properties: N/A </text></g><g stroke-linecap="round" transform="translate(6166.613896875123 1822.0672439083705) rotate(0 1244.1671371556245 468.082117712926)"><path d="M32 0 M32 0 C600.11 -7.75, 1167.72 -7.22, 2456.33 0 M32 0 C756.41 6.18, 1480.41 6.54, 2456.33 0 M2456.33 0 C2478.47 0.24, 2489.38 11.76, 2488.33 32 M2456.33 0 C2476.19 0.06, 2489.39 8.69, 2488.33 32 M2488.33 32 C2485.65 373.74, 2486.15 715.9, 2488.33 904.16 M2488.33 32 C2487.25 294.61, 2487.28 558.04, 2488.33 904.16 M2488.33 904.16 C2487.55 925.89, 2478.74 936.02, 2456.33 936.16 M2488.33 904.16 C2490.06 927.42, 2479.24 934.89, 2456.33 936.16 M2456.33 936.16 C1751.19 944.98, 1045.36 945.44, 32 936.16 M2456.33 936.16 C1857.37 941.75, 1258.28 941.57, 32 936.16 M32 936.16 C9.36 937.59, -1.76 926.25, 0 904.16 M32 936.16 C8.75 937.37, -1.51 924.58, 0 904.16 M0 904.16 C1.32 709.75, 1.07 514.29, 0 32 M0 904.16 C0.41 587.95, 0.62 271.68, 0 32 M0 32 C1.69 12.24, 11.38 -1.27, 32 0 M0 32 C0.9 9.72, 10.12 1.78, 32 0" stroke="#1e1e1e" stroke-width="1" fill="none"></path></g><g transform="translate(6964.898399157197 1878.9692025596603) rotate(0 11.71875 12)"><text x="0" y="0" font-family="Cascadia, Segoe UI Emoji" font-size="20px" fill="#1e1e1e" text-anchor="start" style="white-space: pre;" direction="ltr" dominant-baseline="text-before-edge">Fi</text></g><g transform="translate(6878.935605083717 1891.1055036748749) rotate(0 280.16015625 47.81407249466952)"><text x="0" y="0" font-family="Cascadia, Segoe UI Emoji" font-size="79.69012082444921px" fill="#1e1e1e" text-anchor="start" style="white-space: pre;" direction="ltr" dominant-baseline="text-before-edge">RegisterForm</text></g><g transform="translate(6222.00245435925 2128.5859859473267) rotate(0 1166.6015625 179.2073539610427)"><text x="0" y="0" font-family="Cascadia, Segoe UI Emoji" font-size="99.55964108946814px" fill="#1e1e1e" text-anchor="start" style="white-space: pre;" direction="ltr" dominant-baseline="text-before-edge">States: setName, setEmail, setCardNumber</text><text x="0" y="119.47156930736176" font-family="Cascadia, Segoe UI Emoji" font-size="99.55964108946814px" fill="#1e1e1e" text-anchor="start" style="white-space: pre;" direction="ltr" dominant-baseline="text-before-edge"></text><text x="0" y="238.94313861472352" font-family="Cascadia, Segoe UI Emoji" font-size="99.55964108946814px" fill="#1e1e1e" text-anchor="start" style="white-space: pre;" direction="ltr" dominant-baseline="text-before-edge">Properties: onRegisterClickCreateUser</text></g><g stroke-linecap="round"><g transform="translate(5557.520178413917 834.9911713366541) rotate(0 563.4452399255724 485.2012488897595)"><path d="M0.91 1.04 C188.74 162.56, 939.52 808.49, 1126.96 969.86 M-0.07 0.55 C187.69 161.61, 939.06 806.25, 1126.5 967.89" stroke="#1e1e1e" stroke-width="1" fill="none"></path></g><g transform="translate(5557.520178413917 834.9911713366541) rotate(0 563.4452399255724 485.2012488897595)"><path d="M1100.17 958.84 C1107.35 959.44, 1114.68 963.02, 1124.63 967.24 M1097.6 958.03 C1105.96 960.98, 1113.27 962.58, 1126.62 967.2" stroke="#1e1e1e" stroke-width="1" fill="none"></path></g><g transform="translate(5557.520178413917 834.9911713366541) rotate(0 563.4452399255724 485.2012488897595)"><path d="M1113.55 943.28 C1116.85 948.61, 1120.2 956.82, 1124.63 967.24 M1110.97 942.47 C1116.06 949.37, 1119.95 954.95, 1126.62 967.2" stroke="#1e1e1e" stroke-width="1" fill="none"></path></g></g><mask></mask><g stroke-linecap="round" transform="translate(2347.7131709873074 1781.4138777814785) rotate(0 1724.507271084068 468.082117712926)"><path d="M32 0 M32 0 C1368.93 -3.2, 2706.19 -4.25, 3417.01 0 M32 0 C1184.21 9.72, 2336.69 9.71, 3417.01 0 M3417.01 0 C3440.02 0.06, 3448.01 8.91, 3449.01 32 M3417.01 0 C3436.8 1.4, 3451.06 8.45, 3449.01 32 M3449.01 32 C3449.83 299.73, 3450.03 566.2, 3449.01 904.16 M3449.01 32 C3447.9 322.45, 3447.45 612.15, 3449.01 904.16 M3449.01 904.16 C3447.64 927.09, 3439.61 936.01, 3417.01 936.16 M3449.01 904.16 C3446.78 924.57, 3437.89 937.46, 3417.01 936.16 M3417.01 936.16 C2251.11 940.93, 1084.76 941.72, 32 936.16 M3417.01 936.16 C2293.81 933.73, 1169.98 934.3, 32 936.16 M32 936.16 C11.44 934.72, 1.27 925.68, 0 904.16 M32 936.16 C12.17 937.22, -1.31 925.19, 0 904.16 M0 904.16 C2.55 636.2, 1.73 369.4, 0 32 M0 904.16 C-3.34 711.86, -2.93 520, 0 32 M0 32 C-0.27 11.67, 11.05 0.63, 32 0 M0 32 C-1.33 11.57, 11.14 1.11, 32 0" stroke="#1e1e1e" stroke-width="1" fill="none"></path></g><g transform="translate(3930.5608391929045 1880.841731393848) rotate(0 11.71875 12)"><text x="0" y="0" font-family="Cascadia, Segoe UI Emoji" font-size="20px" fill="#1e1e1e" text-anchor="start" style="white-space: pre;" direction="ltr" dominant-baseline="text-before-edge">Fi</text></g><g transform="translate(3844.5980451194255 1892.9780325090626) rotate(0 210.1201171875 47.81407249466952)"><text x="0" y="0" font-family="Cascadia, Segoe UI Emoji" font-size="79.69012082444921px" fill="#1e1e1e" text-anchor="start" style="white-space: pre;" direction="ltr" dominant-baseline="text-before-edge">LoginForm</text></g><g transform="translate(2414.6745611213983 2134.7280560995227) rotate(0 1662.4072265625 179.2073539610426)"><text x="0" y="0" font-family="Cascadia, Segoe UI Emoji" font-size="99.55964108946814px" fill="#1e1e1e" text-anchor="start" style="white-space: pre;" direction="ltr" dominant-baseline="text-before-edge">States: setEmail, setPassword</text><text x="0" y="119.47156930736176" font-family="Cascadia, Segoe UI Emoji" font-size="99.55964108946814px" fill="#1e1e1e" text-anchor="start" style="white-space: pre;" direction="ltr" dominant-baseline="text-before-edge"></text><text x="0" y="238.94313861472352" font-family="Cascadia, Segoe UI Emoji" font-size="99.55964108946814px" fill="#1e1e1e" text-anchor="start" style="white-space: pre;" direction="ltr" dominant-baseline="text-before-edge">Properties: onLoginClick, onRegisterClickGoToRegisterForm</text></g><g stroke-linecap="round"><g transform="translate(4563.4342569503415 848.1915178841205) rotate(0 -392.76001985111185 458.2182540311948)"><path d="M-0.22 0.6 C-131.04 153.5, -653.94 764, -784.56 916.57 M-1.79 -0.13 C-132.76 152.49, -654.9 761.83, -785.3 914.75" stroke="#1e1e1e" stroke-width="1" fill="none"></path></g><g transform="translate(4563.4342569503415 848.1915178841205) rotate(0 -392.76001985111185 458.2182540311948)"><path d="M-773.78 887.31 C-777.49 897.54, -781.83 904.1, -787.06 913.4 M-774.71 887.09 C-777.6 895.79, -781.64 906.17, -785.92 915.07" stroke="#1e1e1e" stroke-width="1" fill="none"></path></g><g transform="translate(4563.4342569503415 848.1915178841205) rotate(0 -392.76001985111185 458.2182540311948)"><path d="M-758.19 900.65 C-766.93 906.47, -776.4 908.64, -787.06 913.4 M-759.12 900.43 C-767.75 904.16, -777.41 909.73, -785.92 915.07" stroke="#1e1e1e" stroke-width="1" fill="none"></path></g></g><mask></mask><g stroke-linecap="round" transform="translate(10 1339.9795972714105) rotate(0 1065.8500391112311 450.30349259737494)"><path d="M32 0 M32 0 C518.2 -5.94, 1003.12 -6.31, 2099.7 0 M32 0 C550.46 5.27, 1069.19 5.38, 2099.7 0 M2099.7 0 C2120.51 1.23, 2129.88 10.18, 2131.7 32 M2099.7 0 C2122.99 -1.1, 2130.66 8.84, 2131.7 32 M2131.7 32 C2131.16 334.21, 2131.64 637.41, 2131.7 868.61 M2131.7 32 C2131.34 210.59, 2131.12 389.83, 2131.7 868.61 M2131.7 868.61 C2131.9 890.7, 2119.29 901.84, 2099.7 900.61 M2131.7 868.61 C2130.06 890.81, 2120.37 898.95, 2099.7 900.61 M2099.7 900.61 C1616.16 906.38, 1132.93 905.51, 32 900.61 M2099.7 900.61 C1561.21 903.49, 1022.14 903.47, 32 900.61 M32 900.61 C11.65 899.02, -0.87 888.48, 0 868.61 M32 900.61 C10.45 900.6, 0.49 889.59, 0 868.61 M0 868.61 C2.04 541.81, 1.54 216.1, 0 32 M0 868.61 C-1.62 553.92, -2 238.51, 0 32 M0 32 C0.49 9.96, 9.66 -1.87, 32 0 M0 32 C-1.8 9.17, 9.83 -1.48, 32 0" stroke="#1e1e1e" stroke-width="1" fill="none"></path></g><g transform="translate(544.6721734671082 1419.366901048233) rotate(0 233.466796875 47.81407249466952)"><text x="0" y="0" font-family="Cascadia, Segoe UI Emoji" font-size="79.69012082444921px" fill="#1e1e1e" text-anchor="start" style="white-space: pre;" direction="ltr" dominant-baseline="text-before-edge">ShopHeader</text></g><g transform="translate(76.31411876732818 1714.6766318113346) rotate(0 981.36328125 137.04904051172707)"><text x="0" y="0" font-family="Cascadia, Segoe UI Emoji" font-size="76.13835583984839px" fill="#1e1e1e" text-anchor="start" style="white-space: pre;" direction="ltr" dominant-baseline="text-before-edge">States: N/A</text><text x="0" y="91.36602700781806" font-family="Cascadia, Segoe UI Emoji" font-size="76.13835583984839px" fill="#1e1e1e" text-anchor="start" style="white-space: pre;" direction="ltr" dominant-baseline="text-before-edge"></text><text x="0" y="182.73205401563612" font-family="Cascadia, Segoe UI Emoji" font-size="76.13835583984839px" fill="#1e1e1e" text-anchor="start" style="white-space: pre;" direction="ltr" dominant-baseline="text-before-edge">Properties: logo, companyName, onButtonClick</text></g><g stroke-linecap="round" transform="translate(8858.845507693291 1309.2642652401605) rotate(0 1879.9342189179401 450.30349259737494)"><path d="M32 0 M32 0 C917.76 0.97, 1805.08 1.53, 3727.87 0 M32 0 C1399.54 -9.07, 2767.92 -9.3, 3727.87 0 M3727.87 0 C3747.3 -1.07, 3761.35 11.12, 3759.87 32 M3727.87 0 C3746.97 -0.9, 3758.21 11.17, 3759.87 32 M3759.87 32 C3762.55 300.14, 3763.29 569.15, 3759.87 868.61 M3759.87 32 C3760.27 202.47, 3760.37 373.2, 3759.87 868.61 M3759.87 868.61 C3761.77 888.76, 3747.54 900.67, 3727.87 900.61 M3759.87 868.61 C3760.41 892.21, 3750.01 900.36, 3727.87 900.61 M3727.87 900.61 C2380.44 915.94, 1031.82 915.82, 32 900.61 M3727.87 900.61 C2298.53 891.18, 869.72 891.09, 32 900.61 M32 900.61 C12.4 902.13, 1.59 889.58, 0 868.61 M32 900.61 C9.67 900.15, 1.68 888.33, 0 868.61 M0 868.61 C0.23 670.77, 0.74 471.24, 0 32 M0 868.61 C-0.86 581.43, -0.47 293.36, 0 32 M0 32 C1.69 12.44, 12.58 -0.26, 32 0 M0 32 C1.1 10.45, 10.31 -1.11, 32 0" stroke="#1e1e1e" stroke-width="1" fill="none"></path></g><g transform="translate(10520.155729855782 1397.6889496963536) rotate(0 233.466796875 47.81407249466952)"><text x="0" y="0" font-family="Cascadia, Segoe UI Emoji" font-size="79.69012082444921px" fill="#1e1e1e" text-anchor="start" style="white-space: pre;" direction="ltr" dominant-baseline="text-before-edge">ShopFooter</text></g><g transform="translate(8956.538312665874 1683.479163287769) rotate(0 1784.2968750000005 137.04904051172707)"><text x="0" y="0" font-family="Cascadia, Segoe UI Emoji" font-size="76.13835583984839px" fill="#1e1e1e" text-anchor="start" style="white-space: pre;" direction="ltr" dominant-baseline="text-before-edge">States: N/A</text><text x="0" y="91.36602700781806" font-family="Cascadia, Segoe UI Emoji" font-size="76.13835583984839px" fill="#1e1e1e" text-anchor="start" style="white-space: pre;" direction="ltr" dominant-baseline="text-before-edge"></text><text x="0" y="182.73205401563612" font-family="Cascadia, Segoe UI Emoji" font-size="76.13835583984839px" fill="#1e1e1e" text-anchor="start" style="white-space: pre;" direction="ltr" dominant-baseline="text-before-edge">Properties: socialMediaIcons, logo, companyName, contact, privacyPolicy, aboutUs</text></g><g stroke-linecap="round"><g transform="translate(3731.74847661123 334.7750352038256) rotate(0 -1153.4808709336207 499.60636598872304)"><path d="M0.9 0.08 C-383.91 166.74, -1923.12 832.47, -2307.86 998.97 M-0.09 -0.92 C-384.58 165.97, -1920.73 833.3, -2305.45 1000.14" stroke="#1e1e1e" stroke-width="1" fill="none"></path></g><g transform="translate(3731.74847661123 334.7750352038256) rotate(0 -1153.4808709336207 499.60636598872304)"><path d="M-2283.55 978.53 C-2293.32 987.09, -2301.39 994.99, -2305.16 998.47 M-2282.94 979.27 C-2287.51 984.27, -2292.14 987.8, -2304.51 999.53" stroke="#1e1e1e" stroke-width="1" fill="none"></path></g><g transform="translate(3731.74847661123 334.7750352038256) rotate(0 -1153.4808709336207 499.60636598872304)"><path d="M-2275.37 997.35 C-2288.11 998.81, -2299.28 999.54, -2305.16 998.47 M-2274.77 998.1 C-2281.02 999.07, -2287.4 998.56, -2304.51 999.53" stroke="#1e1e1e" stroke-width="1" fill="none"></path></g></g><mask></mask><g stroke-linecap="round"><g transform="translate(6479.75628911123 221.20838283753574) rotate(0 1454.1618748131489 530.4836367534008)"><path d="M0.46 0.34 C485.16 177.42, 2424.15 884.66, 2909.08 1061.49 M-0.76 -0.52 C483.67 176.33, 2422.8 883.27, 2907.86 1059.92" stroke="#1e1e1e" stroke-width="1" fill="none"></path></g><g transform="translate(6479.75628911123 221.20838283753574) rotate(0 1454.1618748131489 530.4836367534008)"><path d="M2878.43 1059.04 C2890.74 1060.6, 2901.53 1058.42, 2906.42 1061.39 M2878.68 1060 C2888.91 1058.83, 2898.46 1059.98, 2908.31 1059.39" stroke="#1e1e1e" stroke-width="1" fill="none"></path></g><g transform="translate(6479.75628911123 221.20838283753574) rotate(0 1454.1618748131489 530.4836367534008)"><path d="M2885.46 1039.76 C2895 1048.49, 2903.19 1053.45, 2906.42 1061.39 M2885.7 1040.72 C2893.47 1046.3, 2900.57 1054.17, 2908.31 1059.39" stroke="#1e1e1e" stroke-width="1" fill="none"></path></g></g><mask></mask></svg>