<svg version="1.1" xmlns="http://www.w3.org/2000/svg" viewBox="0 0 13990.04421908588 4404.882775111848" width="13990.04421908588" height="4404.882775111848">
  <!-- svg-source:excalidraw -->
  
  <defs>
    <style class="style-fonts">
      @font-face {
        font-family: "Virgil";
        src: url("https://excalidraw.com/Virgil.woff2");
      }
      @font-face {
        font-family: "Cascadia";
        src: url("https://excalidraw.com/Cascadia.woff2");
      }
    </style>
    
  </defs>
  <rect x="0" y="0" width="13990.04421908588" height="4404.882775111848" fill="#ffffff"></rect><g stroke-linecap="round" transform="translate(4978.24487099736 10) rotate(0 1364.3568538137688 405.527828361292)"><path d="M32 0 M32 0 C1067.43 1.54, 2102.32 1.33, 2696.71 0 M32 0 C1024.93 -4.37, 2018.25 -4.79, 2696.71 0 M2696.71 0 C2717.39 -0.85, 2729.76 10.17, 2728.71 32 M2696.71 0 C2717.9 -1.6, 2729.97 11.43, 2728.71 32 M2728.71 32 C2726.62 298.8, 2725.46 566.66, 2728.71 779.06 M2728.71 32 C2728.43 269.3, 2729.16 506.76, 2728.71 779.06 M2728.71 779.06 C2726.87 799.76, 2718.96 812.95, 2696.71 811.06 M2728.71 779.06 C2728.9 801.54, 2719.74 811.53, 2696.71 811.06 M2696.71 811.06 C1969.84 817.04, 1243.53 817.56, 32 811.06 M2696.71 811.06 C2006.02 818.79, 1316.13 819.1, 32 811.06 M32 811.06 C10.79 812.81, 1.49 798.81, 0 779.06 M32 811.06 C10.54 812.91, -0.96 799.94, 0 779.06 M0 779.06 C-2.79 555.33, -2.36 331.45, 0 32 M0 779.06 C-1.99 512.83, -2.05 246.02, 0 32 M0 32 C-0.63 9.09, 9.2 -1.33, 32 0 M0 32 C-0.25 11.96, 11.99 2.01, 32 0" stroke="#1e1e1e" stroke-width="1" fill="none"></path></g><g transform="translate(6045.509680444473 88.36457625520234) rotate(0 303.5068359375 47.814072494669745)"><text x="0" y="0" font-family="Cascadia, Segoe UI Emoji" font-size="79.69012082444921px" fill="#1e1e1e" text-anchor="start" style="white-space: pre;" direction="ltr" dominant-baseline="text-before-edge">ShopContainer</text></g><g transform="translate(5041.786662204795 356.1267693783393) rotate(0 1293.615234375 137.04904051172707)"><text x="0" y="0" font-family="Cascadia, Segoe UI Emoji" font-size="76.13835583984839px" fill="#1e1e1e" text-anchor="start" style="white-space: pre;" direction="ltr" dominant-baseline="text-before-edge">States: products, filteredProducts, pages, basketItemCount</text><text x="0" y="91.36602700781806" font-family="Cascadia, Segoe UI Emoji" font-size="76.13835583984839px" fill="#1e1e1e" text-anchor="start" style="white-space: pre;" direction="ltr" dominant-baseline="text-before-edge"></text><text x="0" y="182.73205401563612" font-family="Cascadia, Segoe UI Emoji" font-size="76.13835583984839px" fill="#1e1e1e" text-anchor="start" style="white-space: pre;" direction="ltr" dominant-baseline="text-before-edge">Properties: N/A</text></g><g stroke-linecap="round"><g transform="translate(5146.704700564953 845.2610414105175) rotate(0 -652.0218612029089 521.2332407108161)"><path d="M-0.93 -0.16 C-218.19 173.96, -1086.58 869.8, -1303.84 1043.75 M0.79 -1.29 C-216.61 172.58, -1087.69 868.26, -1304.83 1042.07" stroke="#1e1e1e" stroke-width="1" fill="none"></path></g><g transform="translate(5146.704700564953 845.2610414105175) rotate(0 -652.0218612029089 521.2332407108161)"><path d="M-1289.48 1016.32 C-1292.36 1022.15, -1297.02 1032.39, -1306.37 1041.7 M-1288.89 1015.57 C-1293.79 1024.28, -1300.83 1033.12, -1303.96 1041.36" stroke="#1e1e1e" stroke-width="1" fill="none"></path></g><g transform="translate(5146.704700564953 845.2610414105175) rotate(0 -652.0218612029089 521.2332407108161)"><path d="M-1276.67 1032.35 C-1282.96 1033.65, -1291.17 1039.46, -1306.37 1041.7 M-1276.08 1031.59 C-1285.34 1034.68, -1296.82 1037.98, -1303.96 1041.36" stroke="#1e1e1e" stroke-width="1" fill="none"></path></g></g><mask></mask><g stroke-linecap="round"><g transform="translate(7487.142152127495 837.2780614709236) rotate(0 161.2973554113771 492.54022537616083)"><path d="M0.81 1.09 C54.79 164.85, 269.08 819.35, 322.82 983.31 M-0.23 0.62 C53.72 164.45, 268.17 820.73, 322.03 984.46" stroke="#1e1e1e" stroke-width="1" fill="none"></path></g><g transform="translate(7487.142152127495 837.2780614709236) rotate(0 161.2973554113771 492.54022537616083)"><path d="M305.32 961.36 C306.29 966.95, 312.8 971.68, 321.78 984.87 M303 960.06 C308.59 967.57, 314.49 975.13, 322.83 983.78" stroke="#1e1e1e" stroke-width="1" fill="none"></path></g><g transform="translate(7487.142152127495 837.2780614709236) rotate(0 161.2973554113771 492.54022537616083)"><path d="M324.83 954.96 C321.74 962.03, 324.16 968.11, 321.78 984.87 M322.5 953.67 C321.97 963.12, 321.74 972.68, 322.83 983.78" stroke="#1e1e1e" stroke-width="1" fill="none"></path></g></g><mask></mask><g stroke-linecap="round" transform="translate(2840.365796753241 1896.29119162216) rotate(0 925.3398914592261 445.4584221748396)"><path d="M32 0 M32 0 C393.69 -3.86, 754.18 -3.4, 1818.68 0 M32 0 C571.24 -6.6, 1110.5 -6.92, 1818.68 0 M1818.68 0 C1839.67 -0.6, 1851.24 9.85, 1850.68 32 M1818.68 0 C1840.64 -0.48, 1852.94 11.66, 1850.68 32 M1850.68 32 C1848.7 222.88, 1848.61 412.83, 1850.68 858.92 M1850.68 32 C1853.08 325.22, 1853.03 617.97, 1850.68 858.92 M1850.68 858.92 C1849.19 882.14, 1839.24 892.14, 1818.68 890.92 M1850.68 858.92 C1851.15 880.95, 1838.07 888.7, 1818.68 890.92 M1818.68 890.92 C1300.92 898.61, 781.92 897.56, 32 890.92 M1818.68 890.92 C1143.88 892.17, 469.2 892.39, 32 890.92 M32 890.92 C11.47 891.41, -1.01 879.1, 0 858.92 M32 890.92 C12.12 890.59, -1.38 878.86, 0 858.92 M0 858.92 C-1.71 666.86, -2.3 474.31, 0 32 M0 858.92 C1.33 553.18, 1.42 247.29, 0 32 M0 32 C-1.95 11.03, 10.88 0.82, 32 0 M0 32 C2.23 9, 11.21 1.01, 32 0" stroke="#1e1e1e" stroke-width="1" fill="none"></path></g><g transform="translate(3622.1060578928955 1968.1574013431946) rotate(0 256.8134765625 47.814072494669745)"><text x="0" y="0" font-family="Cascadia, Segoe UI Emoji" font-size="79.69012082444921px" fill="#1e1e1e" text-anchor="start" style="white-space: pre;" direction="ltr" dominant-baseline="text-before-edge">ProductList</text></g><g transform="translate(2910.683612776592 2269.722214649496) rotate(0 847.541015625 137.04904051172707)"><text x="0" y="0" font-family="Cascadia, Segoe UI Emoji" font-size="76.13835583984839px" fill="#1e1e1e" text-anchor="start" style="white-space: pre;" direction="ltr" dominant-baseline="text-before-edge">States: N/A</text><text x="0" y="91.36602700781806" font-family="Cascadia, Segoe UI Emoji" font-size="76.13835583984839px" fill="#1e1e1e" text-anchor="start" style="white-space: pre;" direction="ltr" dominant-baseline="text-before-edge"></text><text x="0" y="182.73205401563612" font-family="Cascadia, Segoe UI Emoji" font-size="76.13835583984839px" fill="#1e1e1e" text-anchor="start" style="white-space: pre;" direction="ltr" dominant-baseline="text-before-edge">Properties: products, onAddBasketClick</text></g><g stroke-linecap="round" transform="translate(1948.0083664859485 3494.2757899170983) rotate(0 1569.0922266112314 450.303492597375)"><path d="M32 0 M32 0 C742.77 9.15, 1453.71 8.67, 3106.18 0 M32 0 C933.15 -1.85, 1835.35 -1.91, 3106.18 0 M3106.18 0 C3128.23 -0.43, 3138.76 11.01, 3138.18 32 M3106.18 0 C3128.34 -0.43, 3136.58 8.65, 3138.18 32 M3138.18 32 C3140.99 251.21, 3140.79 469.52, 3138.18 868.61 M3138.18 32 C3136.58 253.55, 3136.41 475.68, 3138.18 868.61 M3138.18 868.61 C3139.99 889.84, 3128.23 900.92, 3106.18 900.61 M3138.18 868.61 C3139.42 888.53, 3128.61 898.55, 3106.18 900.61 M3106.18 900.61 C2324.01 903.7, 1543.15 903.66, 32 900.61 M3106.18 900.61 C1942.53 896.58, 779.61 896.49, 32 900.61 M32 900.61 C12.48 899.79, 0.94 889.1, 0 868.61 M32 900.61 C11.22 901.99, -2.15 890.18, 0 868.61 M0 868.61 C-1.73 638.71, -2.74 410.36, 0 32 M0 868.61 C-2.56 558.23, -2.64 247.43, 0 32 M0 32 C0.82 11.31, 10.03 1.55, 32 0 M0 32 C-1.47 10.95, 12.2 -0.45, 32 0" stroke="#1e1e1e" stroke-width="1" fill="none"></path></g><g transform="translate(3306.9774149530595 3578.545906193921) rotate(0 256.8134765625 47.81407249466952)"><text x="0" y="0" font-family="Cascadia, Segoe UI Emoji" font-size="79.69012082444921px" fill="#1e1e1e" text-anchor="start" style="white-space: pre;" direction="ltr" dominant-baseline="text-before-edge">ProductItem</text></g><g transform="translate(2097.7599852532785 3868.9728244570224) rotate(0 1449.7412109375 137.04904051172707)"><text x="0" y="0" font-family="Cascadia, Segoe UI Emoji" font-size="76.13835583984839px" fill="#1e1e1e" text-anchor="start" style="white-space: pre;" direction="ltr" dominant-baseline="text-before-edge">States: availableQuantity</text><text x="0" y="91.36602700781806" font-family="Cascadia, Segoe UI Emoji" font-size="76.13835583984839px" fill="#1e1e1e" text-anchor="start" style="white-space: pre;" direction="ltr" dominant-baseline="text-before-edge"></text><text x="0" y="182.73205401563612" font-family="Cascadia, Segoe UI Emoji" font-size="76.13835583984839px" fill="#1e1e1e" text-anchor="start" style="white-space: pre;" direction="ltr" dominant-baseline="text-before-edge">Properties: name, img, price, onAddBasketClick, availableQuantity</text></g><g stroke-linecap="round"><g transform="translate(3693.9312038103185 2811.7120364479088) rotate(0 -63.33798853131964 335.8747554969664)"><path d="M0.39 -0.07 C-20.83 112.16, -105.23 560.72, -126.59 672.9 M-0.87 -1.15 C-22.23 110.74, -105.75 558.92, -127.06 670.91" stroke="#1e1e1e" stroke-width="1" fill="none"></path></g><g transform="translate(3693.9312038103185 2811.7120364479088) rotate(0 -63.33798853131964 335.8747554969664)"><path d="M-132.05 642.82 C-129.86 651.48, -127.96 663.26, -127.83 669.47 M-131.13 640.53 C-131.68 650.95, -129.82 660.28, -127.05 671.47" stroke="#1e1e1e" stroke-width="1" fill="none"></path></g><g transform="translate(3693.9312038103185 2811.7120364479088) rotate(0 -63.33798853131964 335.8747554969664)"><path d="M-111.88 646.62 C-116.96 653.97, -122.34 664.38, -127.83 669.47 M-110.96 644.32 C-117.64 653.51, -121.94 661.67, -127.05 671.47" stroke="#1e1e1e" stroke-width="1" fill="none"></path></g></g><mask></mask><g stroke-linecap="round" transform="translate(7172.339683911285 1836.038222984137) rotate(0 972.1693072356454 468.082117712926)"><path d="M32 0 M32 0 C498.7 -3.66, 965.52 -4.54, 1912.34 0 M32 0 C715.54 5.45, 1398.77 6.08, 1912.34 0 M1912.34 0 C1934.99 -0.7, 1943.32 8.71, 1944.34 32 M1912.34 0 C1935.41 -1.56, 1945.11 11.91, 1944.34 32 M1944.34 32 C1944.8 323.85, 1944.69 615.24, 1944.34 904.16 M1944.34 32 C1947.84 329.51, 1947.57 627.47, 1944.34 904.16 M1944.34 904.16 C1946 926.53, 1933.66 935.88, 1912.34 936.16 M1944.34 904.16 C1942.43 925.97, 1934.24 936.51, 1912.34 936.16 M1912.34 936.16 C1417.92 929.59, 922.37 929.73, 32 936.16 M1912.34 936.16 C1368.06 933.77, 824.91 934.01, 32 936.16 M32 936.16 C9.8 935.79, -0.86 926.74, 0 904.16 M32 936.16 C11.27 938.37, 2.19 924.57, 0 904.16 M0 904.16 C-1.15 661.53, -1.33 417.57, 0 32 M0 904.16 C1.33 603.9, 0.68 303.79, 0 32 M0 32 C-1.72 11.94, 9.57 -1.39, 32 0 M0 32 C0.02 9.92, 12.95 0.56, 32 0" stroke="#1e1e1e" stroke-width="1" fill="none"></path></g><g transform="translate(7947.292983386283 1815.995239766803) rotate(0 7.92999267578125 12.5)"><text x="0" y="0" font-family="Virgil, Segoe UI Emoji" font-size="20px" fill="#1e1e1e" text-anchor="start" style="white-space: pre;" direction="ltr" dominant-baseline="text-before-edge">Fi</text></g><g transform="translate(7861.330189312803 1828.1315408820183) rotate(0 163.4267578125 47.814072494669745)"><text x="0" y="0" font-family="Cascadia, Segoe UI Emoji" font-size="79.69012082444921px" fill="#1e1e1e" text-anchor="start" style="white-space: pre;" direction="ltr" dominant-baseline="text-before-edge">Filters</text></g><g stroke-linecap="round"><g transform="translate(8939.010738948386 2792.23516422375) rotate(0 103.40391894512709 319.91559618103884)"><path d="M0.68 -1.15 C35.05 105.55, 173.07 534.03, 207.22 640.98 M-0.42 0.86 C33.74 107.12, 171.79 532.24, 206.51 639.09" stroke="#1e1e1e" stroke-width="1" fill="none"></path></g><g transform="translate(8939.010738948386 2792.23516422375) rotate(0 103.40391894512709 319.91559618103884)"><path d="M186.12 616.2 C196.04 622.55, 202.51 633.12, 205.64 640.96 M187.79 615.87 C193.15 624.06, 199.06 629.81, 207.17 638.86" stroke="#1e1e1e" stroke-width="1" fill="none"></path></g><g transform="translate(8939.010738948386 2792.23516422375) rotate(0 103.40391894512709 319.91559618103884)"><path d="M205.64 609.86 C208.07 618.77, 207.02 631.78, 205.64 640.96 M207.31 609.53 C206.35 619.74, 205.96 627.53, 207.17 638.86" stroke="#1e1e1e" stroke-width="1" fill="none"></path></g></g><mask></mask><g stroke-linecap="round" transform="translate(6337.548875353507 3431.2328310881085) rotate(0 952.8977616159382 471.7520457634464)"><path d="M32 0 M32 0 C689.71 -3.53, 1346.86 -2.95, 1873.8 0 M32 0 C503.68 -1.76, 975.36 -1.53, 1873.8 0 M1873.8 0 C1893.45 1.9, 1904.01 8.78, 1905.8 32 M1873.8 0 C1896.64 -0.54, 1905.25 8.84, 1905.8 32 M1905.8 32 C1903.07 211.06, 1903.21 390.34, 1905.8 911.5 M1905.8 32 C1903.07 258.78, 1902.61 485.33, 1905.8 911.5 M1905.8 911.5 C1907.45 934.82, 1893.29 944.11, 1873.8 943.5 M1905.8 911.5 C1905.34 931.34, 1895.62 943.11, 1873.8 943.5 M1873.8 943.5 C1360.23 943.13, 847.93 944.07, 32 943.5 M1873.8 943.5 C1246.2 943.41, 619.11 943.21, 32 943.5 M32 943.5 C10.51 943.74, 0.9 932.36, 0 911.5 M32 943.5 C12.66 941.99, 0.42 933.04, 0 911.5 M0 911.5 C1.19 625.69, 0.8 339.63, 0 32 M0 911.5 C-3.33 605.07, -2.62 299.02, 0 32 M0 32 C-0.35 10.91, 12.33 0.42, 32 0 M0 32 C1.21 11.03, 8.94 -0.71, 32 0" stroke="#1e1e1e" stroke-width="1" fill="none"></path></g><g transform="translate(9040.325057192713 3501.7626224227415) rotate(0 233.466796875 47.81407249466952)"><text x="0" y="0" font-family="Cascadia, Segoe UI Emoji" font-size="79.69012082444921px" fill="#1e1e1e" text-anchor="start" style="white-space: pre;" direction="ltr" dominant-baseline="text-before-edge">FilterForm</text></g><g stroke-linecap="round"><g transform="translate(7697.213118588656 2780.2982011886297) rotate(0 -224.58758323969528 317.58736830089265)"><path d="M-0.22 0.37 C-74.78 106.2, -373.38 528.69, -448.18 634.46 M-1.8 -0.48 C-76.41 105.55, -374.25 529.53, -448.95 635.66" stroke="#1e1e1e" stroke-width="1" fill="none"></path></g><g transform="translate(7697.213118588656 2780.2982011886297) rotate(0 -224.58758323969528 317.58736830089265)"><path d="M-440.52 607.24 C-444.16 612.56, -445.05 619.26, -448.06 635.08 M-441.5 606 C-442.63 615.81, -446.33 625.65, -448.94 635.82" stroke="#1e1e1e" stroke-width="1" fill="none"></path></g><g transform="translate(7697.213118588656 2780.2982011886297) rotate(0 -224.58758323969528 317.58736830089265)"><path d="M-423.73 619.05 C-431.2 621.61, -435.98 625.57, -448.06 635.08 M-424.71 617.81 C-431.72 623.5, -441.21 629.28, -448.94 635.82" stroke="#1e1e1e" stroke-width="1" fill="none"></path></g></g><mask></mask><g stroke-linecap="round" transform="translate(8367.2131423852 3437.4794327956297) rotate(0 907.0579178659382 469.37114415763335)"><path d="M32 0 M32 0 C524.31 -2.24, 1017.43 -2.25, 1782.12 0 M32 0 C635.33 -3.23, 1237.91 -3.4, 1782.12 0 M1782.12 0 C1805.41 -1.69, 1814.06 8.69, 1814.12 32 M1782.12 0 C1803.48 0.37, 1812.87 11.12, 1814.12 32 M1814.12 32 C1817.42 235.46, 1817.57 437.04, 1814.12 906.74 M1814.12 32 C1816.25 297.54, 1816.82 563.2, 1814.12 906.74 M1814.12 906.74 C1815.61 928.15, 1802.23 939.32, 1782.12 938.74 M1814.12 906.74 C1814.31 927.68, 1801.22 937.2, 1782.12 938.74 M1782.12 938.74 C1258.07 939.07, 734.91 938.35, 32 938.74 M1782.12 938.74 C1244.84 938.97, 708.09 939.29, 32 938.74 M32 938.74 C9.81 939.85, -0.02 926.67, 0 906.74 M32 938.74 C12.1 938.31, 1.11 928.94, 0 906.74 M0 906.74 C2.35 640.32, 0.88 372.47, 0 32 M0 906.74 C3.08 628.63, 2.84 351.41, 0 32 M0 32 C0.73 10.75, 10.08 1.83, 32 0 M0 32 C0.53 9.21, 10.07 1.88, 32 0" stroke="#1e1e1e" stroke-width="1" fill="none"></path></g><g transform="translate(6985.85876443874 3468.787276654278) rotate(0 303.5068359375 47.81407249466952)"><text x="0" y="0" font-family="Cascadia, Segoe UI Emoji" font-size="79.69012082444921px" fill="#1e1e1e" text-anchor="start" style="white-space: pre;" direction="ltr" dominant-baseline="text-before-edge">FiltersByType</text></g><g transform="translate(7201.858044962946 2064.353376741883) rotate(0 933.28125 238.94313861472347)"><text x="0" y="0" font-family="Cascadia, Segoe UI Emoji" font-size="99.55964108946814px" fill="#1e1e1e" text-anchor="start" style="white-space: pre;" direction="ltr" dominant-baseline="text-before-edge">States: N/A</text><text x="0" y="119.47156930736176" font-family="Cascadia, Segoe UI Emoji" font-size="99.55964108946814px" fill="#1e1e1e" text-anchor="start" style="white-space: pre;" direction="ltr" dominant-baseline="text-before-edge"></text><text x="0" y="238.94313861472352" font-family="Cascadia, Segoe UI Emoji" font-size="99.55964108946814px" fill="#1e1e1e" text-anchor="start" style="white-space: pre;" direction="ltr" dominant-baseline="text-before-edge">Properties: onFilterFormSubmit, </text><text x="0" y="358.4147079220853" font-family="Cascadia, Segoe UI Emoji" font-size="99.55964108946814px" fill="#1e1e1e" text-anchor="start" style="white-space: pre;" direction="ltr" dominant-baseline="text-before-edge">        onFilterClick </text></g><g transform="translate(8436.108394981966 3875.606234602953) rotate(0 739.40625 189.29452535793575)"><text x="0" y="0" font-family="Cascadia, Segoe UI Emoji" font-size="105.1636251988532px" fill="#1e1e1e" text-anchor="start" style="white-space: pre;" direction="ltr" dominant-baseline="text-before-edge">States: searchQuery</text><text x="0" y="126.19635023862384" font-family="Cascadia, Segoe UI Emoji" font-size="105.1636251988532px" fill="#1e1e1e" text-anchor="start" style="white-space: pre;" direction="ltr" dominant-baseline="text-before-edge"></text><text x="0" y="252.39270047724767" font-family="Cascadia, Segoe UI Emoji" font-size="105.1636251988532px" fill="#1e1e1e" text-anchor="start" style="white-space: pre;" direction="ltr" dominant-baseline="text-before-edge">Properties:onFormSubmit </text></g><g transform="translate(6558.015362492936 3752.1997795914767) rotate(0 770.21484375 189.29452535793575)"><text x="0" y="0" font-family="Cascadia, Segoe UI Emoji" font-size="105.1636251988532px" fill="#1e1e1e" text-anchor="start" style="white-space: pre;" direction="ltr" dominant-baseline="text-before-edge">States: N/A</text><text x="0" y="126.19635023862384" font-family="Cascadia, Segoe UI Emoji" font-size="105.1636251988532px" fill="#1e1e1e" text-anchor="start" style="white-space: pre;" direction="ltr" dominant-baseline="text-before-edge"></text><text x="0" y="252.39270047724767" font-family="Cascadia, Segoe UI Emoji" font-size="105.1636251988532px" fill="#1e1e1e" text-anchor="start" style="white-space: pre;" direction="ltr" dominant-baseline="text-before-edge">Properties: onFilterClick</text></g><g stroke-linecap="round"><g transform="translate(6268.583621456638 811.1625174948485) rotate(0 -54.154927498689744 477.64403968572014)"><path d="M0.3 0.84 C-17.47 159.92, -89.59 794.85, -107.46 954.01 M-1 0.24 C-18.89 159.48, -90.84 796.11, -108.61 955.05" stroke="#1e1e1e" stroke-width="1" fill="none"></path></g><g transform="translate(6268.583621456638 811.1625174948485) rotate(0 -54.154927498689744 477.64403968572014)"><path d="M-114.25 925.25 C-115.72 932.86, -111.12 941.3, -109.31 953.38 M-115.05 925.14 C-113 934.88, -110.97 944.55, -108.21 954.25" stroke="#1e1e1e" stroke-width="1" fill="none"></path></g><g transform="translate(6268.583621456638 811.1625174948485) rotate(0 -54.154927498689744 477.64403968572014)"><path d="M-93.86 927.54 C-100.04 934.68, -100.15 942.58, -109.31 953.38 M-94.65 927.43 C-99.26 936.46, -103.86 945.38, -108.21 954.25" stroke="#1e1e1e" stroke-width="1" fill="none"></path></g></g><mask></mask><g stroke-linecap="round" transform="translate(4854.740104537652 1776.2729546713936) rotate(0 1033.515625 518.37890625)"><path d="M32 0 M32 0 C709.77 0.44, 1388.15 1.45, 2035.03 0 M32 0 C485.08 -0.68, 937.48 -0.46, 2035.03 0 M2035.03 0 C2055.14 1.65, 2067.21 10.57, 2067.03 32 M2035.03 0 C2057.33 1.57, 2065.3 12.19, 2067.03 32 M2067.03 32 C2069.55 369.3, 2069.56 706.73, 2067.03 1004.76 M2067.03 32 C2066.69 366.26, 2066.7 701.56, 2067.03 1004.76 M2067.03 1004.76 C2068.69 1026.83, 2055.86 1037.56, 2035.03 1036.76 M2067.03 1004.76 C2065.33 1027.36, 2057.02 1036.21, 2035.03 1036.76 M2035.03 1036.76 C1563.85 1031.21, 1092.82 1031.27, 32 1036.76 M2035.03 1036.76 C1255.21 1040.59, 475.48 1040.42, 32 1036.76 M32 1036.76 C8.94 1035.58, -1.36 1026.55, 0 1004.76 M32 1036.76 C8.84 1038.28, -1.64 1025.84, 0 1004.76 M0 1004.76 C-4.15 784.16, -3.15 564.49, 0 32 M0 1004.76 C2.14 780.15, 1.44 554.86, 0 32 M0 32 C0.36 10.41, 9.52 0.62, 32 0 M0 32 C-1.22 11.76, 12.76 -0.5, 32 0" stroke="#1e1e1e" stroke-width="1" fill="none"></path></g><g transform="translate(5416.904193326774 1960.5750075001797) rotate(0 396.8935546875 47.814072494669745)"><text x="0" y="0" font-family="Cascadia, Segoe UI Emoji" font-size="79.69012082444921px" fill="#1e1e1e" text-anchor="start" style="white-space: pre;" direction="ltr" dominant-baseline="text-before-edge">OrderConfirmation</text></g><g transform="translate(4906.788958951775 2273.0490238581224) rotate(0 914.4521484375 137.04904051172707)"><text x="0" y="0" font-family="Cascadia, Segoe UI Emoji" font-size="76.13835583984839px" fill="#1e1e1e" text-anchor="start" style="white-space: pre;" direction="ltr" dominant-baseline="text-before-edge">States: N/A</text><text x="0" y="91.36602700781806" font-family="Cascadia, Segoe UI Emoji" font-size="76.13835583984839px" fill="#1e1e1e" text-anchor="start" style="white-space: pre;" direction="ltr" dominant-baseline="text-before-edge"></text><text x="0" y="182.73205401563612" font-family="Cascadia, Segoe UI Emoji" font-size="76.13835583984839px" fill="#1e1e1e" text-anchor="start" style="white-space: pre;" direction="ltr" dominant-baseline="text-before-edge">Properties: email, OrderId, onButtonClick</text></g><g stroke-linecap="round" transform="translate(10 1972.8000935198206) rotate(0 1065.8500391112311 450.30349259737477)"><path d="M32 0 M32 0 C453.88 1.7, 874.98 0.99, 2099.7 0 M32 0 C779.27 -4.3, 1525.74 -4.26, 2099.7 0 M2099.7 0 C2119.12 -1.1, 2133.15 11.23, 2131.7 32 M2099.7 0 C2119.53 -0.64, 2129.61 11.98, 2131.7 32 M2131.7 32 C2131.03 241.61, 2131.7 449.58, 2131.7 868.61 M2131.7 32 C2129.61 277.12, 2129.85 522.75, 2131.7 868.61 M2131.7 868.61 C2131.85 891.43, 2122.66 899.97, 2099.7 900.61 M2131.7 868.61 C2130.98 887.65, 2120.35 901.82, 2099.7 900.61 M2099.7 900.61 C1309.98 898.66, 519.97 898.88, 32 900.61 M2099.7 900.61 C1447.25 894.88, 794.92 894.62, 32 900.61 M32 900.61 C11.77 899.83, -0.31 889.78, 0 868.61 M32 900.61 C11.13 898.93, -0.02 890.96, 0 868.61 M0 868.61 C2.66 692.44, 2.95 515.71, 0 32 M0 868.61 C-2.03 692.52, -1.38 517.51, 0 32 M0 32 C-0.1 12.62, 11.83 1.67, 32 0 M0 32 C-0.49 10.49, 12.54 2.21, 32 0" stroke="#1e1e1e" stroke-width="1" fill="none"></path></g><g transform="translate(745.17998596711 2104.882709796643) rotate(0 233.466796875 47.814072494669745)"><text x="0" y="0" font-family="Cascadia, Segoe UI Emoji" font-size="79.69012082444921px" fill="#1e1e1e" text-anchor="start" style="white-space: pre;" direction="ltr" dominant-baseline="text-before-edge">ShopHeader</text></g><g transform="translate(75.14919096762605 2347.4971280597447) rotate(0 691.4150390625 182.7320540156361)"><text x="0" y="0" font-family="Cascadia, Segoe UI Emoji" font-size="76.13835583984839px" fill="#1e1e1e" text-anchor="start" style="white-space: pre;" direction="ltr" dominant-baseline="text-before-edge">States: N/A</text><text x="0" y="91.36602700781806" font-family="Cascadia, Segoe UI Emoji" font-size="76.13835583984839px" fill="#1e1e1e" text-anchor="start" style="white-space: pre;" direction="ltr" dominant-baseline="text-before-edge"></text><text x="0" y="182.73205401563612" font-family="Cascadia, Segoe UI Emoji" font-size="76.13835583984839px" fill="#1e1e1e" text-anchor="start" style="white-space: pre;" direction="ltr" dominant-baseline="text-before-edge">Properties: logo, companyName,</text><text x="0" y="274.0980810234542" font-family="Cascadia, Segoe UI Emoji" font-size="76.13835583984839px" fill="#1e1e1e" text-anchor="start" style="white-space: pre;" direction="ltr" dominant-baseline="text-before-edge">            onButtonClickGoHome</text></g><g stroke-linecap="round" transform="translate(10220.17578125 2001.8625935198206) rotate(0 1879.9342189179397 450.303492597375)"><path d="M32 0 M32 0 C1491.32 -2.44, 2951.42 -1.69, 3727.87 0 M32 0 C1296.22 -5.45, 2561.15 -5.81, 3727.87 0 M3727.87 0 C3747.74 -1.56, 3760.73 9.82, 3759.87 32 M3727.87 0 C3749.5 -1.26, 3761.36 12.16, 3759.87 32 M3759.87 32 C3761.99 359.29, 3762.14 685.23, 3759.87 868.61 M3759.87 32 C3760.22 295.62, 3760.25 559.23, 3759.87 868.61 M3759.87 868.61 C3759.67 888.1, 3750.12 900.96, 3727.87 900.61 M3759.87 868.61 C3757.94 890.48, 3751.01 900.55, 3727.87 900.61 M3727.87 900.61 C2369.51 892.3, 1011.93 891.36, 32 900.61 M3727.87 900.61 C2837.25 909.28, 1945.53 908.87, 32 900.61 M32 900.61 C11.29 900.5, 0.27 890.24, 0 868.61 M32 900.61 C8.56 901.82, 0.96 890.5, 0 868.61 M0 868.61 C-1.56 547.6, -0.89 226.48, 0 32 M0 868.61 C-1.65 623.04, -1.89 378, 0 32 M0 32 C-0.76 9.91, 8.67 -0.12, 32 0 M0 32 C1.2 8.94, 12.69 -0.72, 32 0" stroke="#1e1e1e" stroke-width="1" fill="none"></path></g><g transform="translate(11881.48600341249 2090.2872779760137) rotate(0 233.466796875 47.814072494669745)"><text x="0" y="0" font-family="Cascadia, Segoe UI Emoji" font-size="79.69012082444921px" fill="#1e1e1e" text-anchor="start" style="white-space: pre;" direction="ltr" dominant-baseline="text-before-edge">ShopFooter</text></g><g transform="translate(10317.868586222585 2376.077491567429) rotate(0 1784.296875 137.04904051172707)"><text x="0" y="0" font-family="Cascadia, Segoe UI Emoji" font-size="76.13835583984839px" fill="#1e1e1e" text-anchor="start" style="white-space: pre;" direction="ltr" dominant-baseline="text-before-edge">States: N/A</text><text x="0" y="91.36602700781806" font-family="Cascadia, Segoe UI Emoji" font-size="76.13835583984839px" fill="#1e1e1e" text-anchor="start" style="white-space: pre;" direction="ltr" dominant-baseline="text-before-edge"></text><text x="0" y="182.73205401563612" font-family="Cascadia, Segoe UI Emoji" font-size="76.13835583984839px" fill="#1e1e1e" text-anchor="start" style="white-space: pre;" direction="ltr" dominant-baseline="text-before-edge">Properties: socialMediaIcons, logo, companyName, contact, privacyPolicy, aboutUs</text></g><g stroke-linecap="round"><g transform="translate(4968.565755928401 251.11008725275042) rotate(0 -1750.8266492830219 850.0334949304911)"><path d="M-1.09 0.17 C-584.6 283.38, -2919.03 1416.25, -3502.2 1699.4 M0.55 -0.78 C-582.5 282.6, -2916.53 1417.36, -3500 1700.85" stroke="#1e1e1e" stroke-width="1" fill="none"></path></g><g transform="translate(4968.565755928401 251.11008725275042) rotate(0 -1750.8266492830219 850.0334949304911)"><path d="M-3478.85 1677.65 C-3483.7 1685.38, -3488.53 1688.71, -3499.02 1700.29 M-3479.91 1679.6 C-3485.9 1685.47, -3492.11 1693.82, -3500.92 1701.34" stroke="#1e1e1e" stroke-width="1" fill="none"></path></g><g transform="translate(4968.565755928401 251.11008725275042) rotate(0 -1750.8266492830219 850.0334949304911)"><path d="M-3469.87 1696.11 C-3476.6 1699.95, -3483.29 1699.47, -3499.02 1700.29 M-3470.94 1698.06 C-3479.91 1697.85, -3489.08 1700.11, -3500.92 1701.34" stroke="#1e1e1e" stroke-width="1" fill="none"></path></g></g><mask></mask><g stroke-linecap="round"><g transform="translate(7727.042318428401 196.90678923808355) rotate(0 1878.7253259462104 892.8286616695505)"><path d="M-0.9 -1.17 C625.58 296.46, 3131.83 1488.96, 3758.35 1786.82 M0.83 0.84 C627.26 298.64, 3131.61 1487.34, 3757.76 1785.07" stroke="#1e1e1e" stroke-width="1" fill="none"></path></g><g transform="translate(7727.042318428401 196.90678923808355) rotate(0 1878.7253259462104 892.8286616695505)"><path d="M3725.95 1783.4 C3736.73 1784.11, 3742.98 1782.17, 3758.75 1786.81 M3728.67 1782.49 C3740.16 1783.35, 3751.2 1784.51, 3756.96 1785.36" stroke="#1e1e1e" stroke-width="1" fill="none"></path></g><g transform="translate(7727.042318428401 196.90678923808355) rotate(0 1878.7253259462104 892.8286616695505)"><path d="M3734.76 1764.86 C3743.45 1770.24, 3747.45 1773.03, 3758.75 1786.81 M3737.48 1763.95 C3745.58 1771.95, 3753.28 1780.15, 3756.96 1785.36" stroke="#1e1e1e" stroke-width="1" fill="none"></path></g></g><mask></mask></svg>